<?xml version="1.0" encoding="UTF-8"?>
<svg id="Layer_2" data-name="Layer 2" xmlns="http://www.w3.org/2000/svg" viewBox="0 0 592.77 367.6">
  <defs>
    <style>
      .cls-1 {
        fill: #3c89c8;
      }

      .cls-1, .cls-2, .cls-3 {
        stroke-width: 0px;
      }

      .cls-2 {
        fill: #154769;
      }

      .cls-3 {
        fill: #ffcd00;
      }
    </style>
  </defs>
  <g id="Layer_1-2" data-name="Layer 1">
    <g>
      <g>
        <path class="cls-1" d="M33.55,345.54c-.69-.81-1.49-1.92-2.38-3.3l-2.87-4.28c-.53-.82-1.17-1.59-1.92-2.32-.75-.73-1.52-1.26-2.29-1.59,2.4-.69,4.39-1.63,5.96-2.81,1.57-1.18,2.75-2.55,3.54-4.09.79-1.55,1.21-3.18,1.25-4.89.08-3.26-.59-5.85-2.02-7.76-1.43-1.91-3.46-3.3-6.11-4.16-2.65-.86-5.77-1.26-9.35-1.22-2.89.04-5.79.06-8.68.06s-5.79.02-8.68.06v4.71c.45-.04,1.16-.07,2.14-.09.98-.02,1.79-.05,2.44-.09-.04.53-.09,1.3-.15,2.32-.06,1.02-.09,2.08-.09,3.18v23.41c0,1.63-.17,2.81-.52,3.54-.35.73-.84,1.2-1.47,1.41-.63.2-1.42.33-2.35.37v4.03h18.15v-4.71c-.29,0-.76.01-1.44.03-.67.02-1.35.04-2.05.06-.69.02-1.26.05-1.71.09.08-.53.14-1.3.18-2.32.04-1.02.06-2.1.06-3.24v-6.54h3.18c.41.41.8.9,1.19,1.47.39.57.85,1.26,1.38,2.08l4.52,7.33c.81,1.3,1.58,2.46,2.29,3.45.71,1,1.44,1.76,2.17,2.29h10.08v-4.03c-.9-.04-1.69-.25-2.38-.64-.69-.39-1.39-.99-2.08-1.8ZM21.64,329.98c-1.39.67-3.22,1.01-5.5,1.01-.53,0-1.04-.03-1.53-.09-.49-.06-.96-.11-1.41-.15v-12.53c0-1.43.16-2.49.49-3.18.33-.69.79-1.14,1.41-1.34s1.34-.31,2.2-.31c.61,0,1.38.07,2.32.21.94.14,1.86.49,2.78,1.04.92.55,1.68,1.39,2.29,2.51.61,1.12.92,2.66.92,4.61,0,2.08-.32,3.8-.95,5.16-.63,1.37-1.64,2.38-3.03,3.06Z"/>
        <path class="cls-1" d="M65.55,345.69c-1.08.67-2.14,1.15-3.18,1.44-1.04.29-1.97.43-2.78.43-2.12,0-3.81-.51-5.07-1.53-1.26-1.02-2.17-2.4-2.72-4.16-.55-1.75-.83-3.73-.83-5.93l20.05-.37c.04-2.93-.34-5.38-1.13-7.33-.79-1.96-1.85-3.5-3.18-4.65-1.32-1.14-2.8-1.95-4.43-2.41-1.63-.47-3.3-.7-5.01-.7-3.06,0-5.74.76-8.04,2.29-2.3,1.53-4.09,3.54-5.35,6.02-1.26,2.49-1.89,5.16-1.89,8.01,0,3.3.63,6.16,1.89,8.59,1.26,2.42,3.04,4.3,5.32,5.62,2.28,1.32,4.91,1.99,7.88,1.99,1.38,0,2.9-.18,4.55-.55,1.65-.37,3.31-1.09,4.98-2.17,1.67-1.08,3.24-2.66,4.71-4.74l-2.75-2.57c-.94,1.14-1.95,2.05-3.03,2.72ZM53.35,326.68c1.02-1.28,2.42-1.93,4.22-1.93.98,0,1.83.22,2.57.67s1.31,1.17,1.74,2.17c.43,1,.66,2.35.7,4.06h-11.25c.33-2.04,1-3.7,2.02-4.98Z"/>
        <path class="cls-1" d="M96.66,335.33c-1.61-.94-3.45-1.75-5.53-2.44-1.39-.49-2.65-.92-3.79-1.28-1.14-.37-2.04-.83-2.69-1.38-.65-.55-.98-1.29-.98-2.23,0-1.18.42-2.02,1.25-2.51.83-.49,1.76-.73,2.78-.73,1.47,0,2.79.28,3.97.83,1.18.55,2.15,1.33,2.9,2.35.75,1.02,1.25,2.24,1.5,3.67h3.97v-10.82h-4.65v1.77c-.98-.69-2.17-1.21-3.58-1.56-1.41-.35-2.66-.52-3.76-.52-2,0-3.72.29-5.16.86-1.45.57-2.64,1.33-3.58,2.29-.94.96-1.63,2.02-2.08,3.18-.45,1.16-.67,2.33-.67,3.51,0,1.63.33,3,.98,4.12.65,1.12,1.52,2.06,2.6,2.81,1.08.75,2.26,1.4,3.54,1.92,1.28.53,2.56,1.04,3.82,1.53,1.55.57,2.84,1.08,3.88,1.53s1.83.92,2.38,1.41c.55.49.82,1.12.82,1.89,0,.69-.21,1.27-.64,1.74-.43.47-.96.8-1.59,1.01-.63.21-1.29.31-1.99.31-1.71,0-3.26-.29-4.65-.89-1.39-.59-2.51-1.4-3.36-2.41-.86-1.02-1.34-2.14-1.47-3.36h-3.97l.24,10.51h4.65l-.12-1.83c.94.69,2.24,1.26,3.91,1.71,1.67.45,3.38.67,5.13.67,1.91,0,3.72-.35,5.41-1.04,1.69-.69,3.07-1.73,4.13-3.12,1.06-1.38,1.59-3.14,1.59-5.26,0-1.91-.47-3.53-1.41-4.86-.94-1.32-2.21-2.45-3.82-3.39Z"/>
        <path class="cls-1" d="M133.94,322.37c-1.85-1.26-4-1.89-6.45-1.89-1.26,0-2.6.24-4,.73-1.41.49-2.82,1.34-4.25,2.57-.04-.37-.08-.84-.12-1.44-.04-.59-.1-1.09-.18-1.5h-2.99c-.29.24-.81.51-1.56.79-.75.29-1.77.53-3.06.73-1.28.2-2.88.31-4.8.31v4.64c.45-.04,1.12-.07,2.02-.09.9-.02,1.67-.05,2.32-.09-.08.9-.14,1.8-.18,2.72-.04.92-.06,1.74-.06,2.48v25.85c0,1.06-.07,2.01-.21,2.84-.14.83-.47,1.48-.98,1.93-.51.45-1.34.67-2.48.67v3.97h16.01v-4.64c-.41,0-1,0-1.77.03-.77.02-1.49.07-2.14.15.08-.94.13-1.92.15-2.96.02-1.04.03-1.84.03-2.41v-5.87c.77.28,1.6.54,2.48.76.88.22,1.86.34,2.96.34,3.06,0,5.71-.73,7.98-2.2,2.26-1.47,4.02-3.49,5.29-6.08,1.26-2.59,1.89-5.51,1.89-8.77s-.52-5.87-1.56-8.19-2.49-4.12-4.34-5.38ZM130.24,342.48c-.41,1.75-1.13,3.17-2.17,4.25-1.04,1.08-2.5,1.64-4.37,1.68-.9.04-1.75-.06-2.57-.31-.82-.25-1.45-.51-1.89-.79v-18.64c.57-.81,1.28-1.46,2.14-1.93.86-.47,1.79-.72,2.81-.76,1.59-.04,2.87.46,3.85,1.5.98,1.04,1.69,2.39,2.14,4.06.45,1.67.67,3.44.67,5.32,0,2-.2,3.87-.61,5.62Z"/>
        <path class="cls-1" d="M168.19,322.37c-2.32-1.26-4.95-1.89-7.88-1.89-2.77,0-5.33.7-7.67,2.11-2.34,1.41-4.22,3.38-5.62,5.93-1.41,2.55-2.11,5.51-2.11,8.89,0,3.18.68,5.94,2.05,8.28,1.36,2.34,3.23,4.15,5.59,5.41,2.36,1.26,5.01,1.89,7.95,1.89s5.6-.68,7.88-2.05c2.28-1.37,4.07-3.31,5.38-5.84,1.3-2.53,1.96-5.5,1.96-8.92s-.67-6.06-2.02-8.4c-1.34-2.34-3.18-4.15-5.5-5.41ZM166.18,342.79c-.33,1.67-.91,3.06-1.74,4.16-.84,1.1-2.07,1.67-3.7,1.71-1.67.04-3.01-.58-4-1.86-1-1.28-1.72-2.92-2.17-4.92-.45-2-.67-4.03-.67-6.11,0-1.79.19-3.51.58-5.17.39-1.65,1.04-3.03,1.96-4.12.92-1.1,2.17-1.67,3.76-1.71,1.22-.04,2.25.33,3.09,1.1.83.77,1.5,1.79,1.99,3.06.49,1.26.85,2.67,1.07,4.22.22,1.55.34,3.08.34,4.58,0,1.71-.16,3.4-.49,5.07Z"/>
        <path class="cls-1" d="M212.56,347.55c.08-.94.14-1.92.18-2.96.04-1.04.06-1.84.06-2.41v-8.19c0-4.73-.79-8.16-2.35-10.3-1.57-2.14-4.23-3.21-7.98-3.21-.82,0-1.75.15-2.81.46-1.06.31-2.12.71-3.18,1.22-1.06.51-2,1.09-2.81,1.74-.12-.57-.19-.97-.21-1.19-.02-.22-.03-.46-.03-.7s-.04-.63-.12-1.16h-2.99c-.29.24-.81.51-1.56.79-.75.29-1.78.53-3.09.73-1.3.2-2.89.31-4.77.31v4.64c.45-.04,1.11-.07,1.99-.09.88-.02,1.64-.05,2.29-.09-.08.9-.14,1.8-.18,2.72-.04.92-.06,1.74-.06,2.48v10.27c0,1.06-.07,2.01-.21,2.84-.14.84-.46,1.48-.95,1.93-.49.45-1.3.67-2.44.67v3.97h16.01v-4.64c-.41,0-1.01,0-1.8.03-.79.02-1.52.07-2.17.15.08-.94.14-1.92.18-2.96.04-1.04.06-1.84.06-2.41v-13.81c.69-.61,1.54-1.14,2.54-1.59,1-.45,2.01-.67,3.03-.67,1.79,0,3.07.64,3.82,1.93.75,1.28,1.13,3.25,1.13,5.9l.06,8.68c0,1.06-.07,2.01-.21,2.84-.14.84-.47,1.48-.98,1.93-.51.45-1.33.67-2.48.67v3.97h16.01v-4.64c-.41,0-1,0-1.77.03-.77.02-1.51.07-2.2.15Z"/>
        <path class="cls-1" d="M241.38,335.33c-1.61-.94-3.45-1.75-5.53-2.44-1.39-.49-2.65-.92-3.79-1.28-1.14-.37-2.04-.83-2.69-1.38-.65-.55-.98-1.29-.98-2.23,0-1.18.42-2.02,1.25-2.51.83-.49,1.76-.73,2.78-.73,1.47,0,2.79.28,3.97.83,1.18.55,2.15,1.33,2.9,2.35.75,1.02,1.25,2.24,1.5,3.67h3.97v-10.82h-4.65v1.77c-.98-.69-2.17-1.21-3.58-1.56-1.41-.35-2.66-.52-3.76-.52-2,0-3.72.29-5.16.86-1.45.57-2.64,1.33-3.58,2.29-.94.96-1.63,2.02-2.08,3.18-.45,1.16-.67,2.33-.67,3.51,0,1.63.33,3,.98,4.12.65,1.12,1.52,2.06,2.6,2.81,1.08.75,2.26,1.4,3.54,1.92,1.28.53,2.56,1.04,3.82,1.53,1.55.57,2.84,1.08,3.88,1.53s1.83.92,2.38,1.41c.55.49.82,1.12.82,1.89,0,.69-.21,1.27-.64,1.74-.43.47-.96.8-1.59,1.01-.63.21-1.29.31-1.99.31-1.71,0-3.26-.29-4.65-.89-1.39-.59-2.51-1.4-3.36-2.41-.86-1.02-1.34-2.14-1.47-3.36h-3.97l.24,10.51h4.65l-.12-1.83c.94.69,2.24,1.26,3.91,1.71,1.67.45,3.38.67,5.13.67,1.91,0,3.72-.35,5.41-1.04,1.69-.69,3.07-1.73,4.13-3.12,1.06-1.38,1.59-3.14,1.59-5.26,0-1.91-.47-3.53-1.41-4.86-.94-1.32-2.21-2.45-3.82-3.39Z"/>
        <path class="cls-1" d="M264.33,347.55c.08-.94.14-1.92.18-2.96.04-1.04.06-1.84.06-2.41v-21.33h-3.3c-.29.24-.81.51-1.56.79-.75.29-1.78.53-3.09.73-1.3.2-2.89.31-4.77.31v4.64c.45-.04,1.11-.07,1.99-.09.88-.02,1.64-.05,2.29-.09-.08.9-.14,1.82-.18,2.78-.04.96-.06,1.8-.06,2.54v10.15c0,1.06-.07,2.01-.21,2.84-.14.84-.46,1.48-.95,1.93-.49.45-1.3.67-2.44.67v3.97h16.01v-4.64c-.41,0-1.01,0-1.8.03-.79.02-1.52.07-2.17.15Z"/>
        <path class="cls-1" d="M259.93,316.02c1.38,0,2.48-.49,3.3-1.47.81-.98,1.22-2.16,1.22-3.54s-.44-2.57-1.31-3.54c-.88-.98-1.97-1.47-3.27-1.47s-2.36.49-3.3,1.47c-.94.98-1.41,2.16-1.41,3.54s.45,2.57,1.34,3.54c.9.98,2.04,1.47,3.42,1.47Z"/>
        <path class="cls-1" d="M292.08,326.1l3.79-.24c-.37.65-.7,1.28-1.01,1.89s-.64,1.43-1.01,2.44l-2.63,7.46c-.29.86-.58,1.71-.89,2.57s-.62,1.71-.95,2.57h-.06c-.33-.81-.65-1.63-.98-2.45-.33-.81-.65-1.61-.98-2.38l-3.18-7.82c-.29-.81-.47-1.58-.55-2.29-.08-.71.02-1.29.31-1.74.28-.45.86-.69,1.71-.73v-3.91h-14.3v4.64l2.26-.12c.12.49.21.93.28,1.31.06.39.18.85.37,1.38.18.53.5,1.3.95,2.32l9.66,21.21h5.32l7.82-19.5c.33-.81.75-1.76,1.28-2.84.53-1.08,1.16-2.06,1.89-2.93.73-.88,1.57-1.4,2.51-1.56v-3.91h-11.61v4.64Z"/>
        <path class="cls-1" d="M330.55,345.69c-1.08.67-2.14,1.15-3.18,1.44-1.04.29-1.97.43-2.78.43-2.12,0-3.81-.51-5.07-1.53-1.26-1.02-2.17-2.4-2.72-4.16-.55-1.75-.83-3.73-.83-5.93l20.05-.37c.04-2.93-.34-5.38-1.13-7.33-.79-1.96-1.85-3.5-3.18-4.65-1.32-1.14-2.8-1.95-4.43-2.41-1.63-.47-3.3-.7-5.01-.7-3.06,0-5.74.76-8.04,2.29-2.3,1.53-4.08,3.54-5.35,6.02-1.26,2.49-1.89,5.16-1.89,8.01,0,3.3.63,6.16,1.89,8.59,1.26,2.42,3.04,4.3,5.32,5.62,2.28,1.32,4.91,1.99,7.88,1.99,1.38,0,2.9-.18,4.55-.55,1.65-.37,3.31-1.09,4.98-2.17,1.67-1.08,3.24-2.66,4.71-4.74l-2.75-2.57c-.94,1.14-1.95,2.05-3.03,2.72ZM318.36,326.68c1.02-1.28,2.42-1.93,4.22-1.93.98,0,1.83.22,2.57.67s1.31,1.17,1.74,2.17.66,2.35.7,4.06h-11.25c.33-2.04,1-3.7,2.02-4.98Z"/>
        <path class="cls-1" d="M388.7,346.06c-2.53,1.32-5.07,1.99-7.64,1.99-2.73,0-5.05-.77-6.97-2.32-1.92-1.55-3.37-3.68-4.37-6.39-1-2.71-1.5-5.82-1.5-9.32,0-2.2.25-4.34.76-6.42s1.28-3.93,2.32-5.56c1.04-1.63,2.35-2.93,3.94-3.91,1.59-.98,3.44-1.47,5.56-1.47,2.85.04,5.14.92,6.88,2.63,1.73,1.71,2.86,4.26,3.39,7.64h3.97v-14.24h-4.71l.24,2.57c-1.67-.98-3.45-1.72-5.35-2.23-1.89-.51-3.64-.76-5.23-.76-3.54,0-6.66.66-9.35,1.99-2.69,1.32-4.92,3.1-6.69,5.32-1.77,2.22-3.11,4.7-4,7.43-.9,2.73-1.34,5.48-1.34,8.25,0,3.06.5,5.9,1.5,8.53,1,2.63,2.42,4.93,4.28,6.91,1.85,1.98,4.06,3.52,6.63,4.64,2.57,1.12,5.42,1.68,8.56,1.68,1.67,0,3.55-.24,5.65-.73,2.1-.49,4.25-1.44,6.45-2.84,2.2-1.41,4.3-3.47,6.29-6.2l-2.93-2.69c-1.71,2.36-3.83,4.21-6.36,5.53Z"/>
        <path class="cls-1" d="M425.22,345.69c-1.08.67-2.14,1.15-3.18,1.44-1.04.29-1.97.43-2.78.43-2.12,0-3.81-.51-5.07-1.53-1.26-1.02-2.17-2.4-2.72-4.16-.55-1.75-.83-3.73-.83-5.93l20.05-.37c.04-2.93-.34-5.38-1.13-7.33-.79-1.96-1.85-3.5-3.18-4.65-1.32-1.14-2.8-1.95-4.43-2.41-1.63-.47-3.3-.7-5.01-.7-3.06,0-5.74.76-8.04,2.29-2.3,1.53-4.08,3.54-5.35,6.02-1.26,2.49-1.89,5.16-1.89,8.01,0,3.3.63,6.16,1.89,8.59,1.26,2.42,3.04,4.3,5.32,5.62,2.28,1.32,4.91,1.99,7.88,1.99,1.38,0,2.9-.18,4.55-.55,1.65-.37,3.31-1.09,4.98-2.17,1.67-1.08,3.24-2.66,4.71-4.74l-2.75-2.57c-.94,1.14-1.95,2.05-3.03,2.72ZM413.03,326.68c1.02-1.28,2.42-1.93,4.22-1.93.98,0,1.83.22,2.57.67s1.31,1.17,1.74,2.17.66,2.35.7,4.06h-11.25c.33-2.04,1-3.7,2.02-4.98Z"/>
        <path class="cls-1" d="M467.6,347.55c.08-.94.14-1.92.18-2.96.04-1.04.06-1.84.06-2.41v-8.19c0-4.73-.79-8.16-2.35-10.3-1.57-2.14-4.23-3.21-7.98-3.21-.82,0-1.75.15-2.81.46s-2.12.71-3.18,1.22c-1.06.51-2,1.09-2.81,1.74-.12-.57-.19-.97-.21-1.19-.02-.22-.03-.46-.03-.7s-.04-.63-.12-1.16h-2.99c-.29.24-.81.51-1.56.79-.75.29-1.78.53-3.09.73s-2.89.31-4.77.31v4.64c.45-.04,1.11-.07,1.99-.09.88-.02,1.64-.05,2.29-.09-.08.9-.14,1.8-.18,2.72-.04.92-.06,1.74-.06,2.48v10.27c0,1.06-.07,2.01-.21,2.84-.14.84-.46,1.48-.95,1.93-.49.45-1.3.67-2.44.67v3.97h16.01v-4.64c-.41,0-1.01,0-1.8.03-.79.02-1.52.07-2.17.15.08-.94.14-1.92.18-2.96.04-1.04.06-1.84.06-2.41v-13.81c.69-.61,1.54-1.14,2.54-1.59,1-.45,2.01-.67,3.03-.67,1.79,0,3.07.64,3.82,1.93.75,1.28,1.13,3.25,1.13,5.9l.06,8.68c0,1.06-.07,2.01-.21,2.84-.14.84-.47,1.48-.98,1.93-.51.45-1.33.67-2.48.67v3.97h16.01v-4.64c-.41,0-1,0-1.77.03-.77.02-1.51.07-2.2.15Z"/>
        <path class="cls-1" d="M493.79,346.7c-1,.41-1.78.61-2.35.61-1.02,0-1.79-.29-2.32-.89-.53-.59-.89-1.34-1.07-2.26-.18-.92-.28-1.84-.28-2.78l.06-15.03,7.76-.18v-4.71h-7.76l.06-8.56h-4.52c-.29,1.43-.85,2.79-1.68,4.09-.84,1.3-1.84,2.36-3.03,3.18-1.18.82-2.4,1.24-3.67,1.28v5.07h4.16l-.12,14.73c0,2.57.26,4.62.79,6.17.53,1.55,1.24,2.72,2.14,3.51.9.79,1.91,1.33,3.06,1.62,1.14.29,2.32.43,3.54.43.33,0,.9-.04,1.71-.12.81-.08,1.76-.33,2.84-.73,1.08-.41,2.21-1.06,3.39-1.96,1.18-.9,2.32-2.16,3.42-3.79l-2.93-2.75c-1.14,1.63-2.21,2.65-3.21,3.06Z"/>
        <path class="cls-1" d="M525.88,345.69c-1.08.67-2.14,1.15-3.18,1.44-1.04.29-1.97.43-2.78.43-2.12,0-3.81-.51-5.07-1.53-1.26-1.02-2.17-2.4-2.72-4.16-.55-1.75-.83-3.73-.83-5.93l20.05-.37c.04-2.93-.34-5.38-1.13-7.33-.79-1.96-1.85-3.5-3.18-4.65-1.32-1.14-2.8-1.95-4.43-2.41-1.63-.47-3.3-.7-5.01-.7-3.06,0-5.74.76-8.04,2.29-2.3,1.53-4.08,3.54-5.35,6.02-1.26,2.49-1.89,5.16-1.89,8.01,0,3.3.63,6.16,1.89,8.59,1.26,2.42,3.04,4.3,5.32,5.62,2.28,1.32,4.91,1.99,7.88,1.99,1.38,0,2.9-.18,4.55-.55,1.65-.37,3.31-1.09,4.98-2.17,1.67-1.08,3.24-2.66,4.71-4.74l-2.75-2.57c-.94,1.14-1.95,2.05-3.03,2.72ZM513.68,326.68c1.02-1.28,2.42-1.93,4.22-1.93.98,0,1.83.22,2.57.67s1.31,1.17,1.74,2.17.66,2.35.7,4.06h-11.25c.33-2.04,1-3.7,2.02-4.98Z"/>
        <path class="cls-1" d="M561.91,321.67c-1.06-.79-2.3-1.19-3.73-1.19-.98,0-1.95.19-2.9.58-.96.39-1.92.99-2.9,1.8-.98.82-2.02,1.89-3.12,3.24,0-.86-.02-1.84-.06-2.96-.04-1.12-.1-1.88-.18-2.29h-2.99c-.41.41-1.27.82-2.6,1.22-1.32.41-2.78.61-4.37.61h-2.44v4.64c.45-.04,1.11-.07,1.99-.09.88-.02,1.64-.05,2.29-.09-.08.9-.14,1.8-.18,2.72-.04.92-.06,1.74-.06,2.48v10.27c0,1.06-.07,2.01-.21,2.84-.14.84-.46,1.48-.95,1.93-.49.45-1.3.67-2.44.67v3.97h16.01v-4.64c-.41,0-1.01,0-1.8.03-.79.02-1.52.07-2.17.15.08-.94.14-1.92.18-2.96.04-1.04.06-1.84.06-2.41v-9.96c.25-.77.68-1.62,1.31-2.54.63-.92,1.35-1.71,2.17-2.38.81-.67,1.63-1.01,2.44-1.01.12,1.39.61,2.32,1.47,2.81s1.69.73,2.51.73c1.06,0,1.89-.22,2.51-.67.61-.45,1.06-1.01,1.34-1.68.28-.67.43-1.31.43-1.92,0-1.79-.53-3.09-1.59-3.88Z"/>
        <path class="cls-1" d="M591.36,338.72c-.94-1.32-2.21-2.45-3.82-3.39-1.61-.94-3.45-1.75-5.53-2.44-1.39-.49-2.65-.92-3.79-1.28-1.14-.37-2.04-.83-2.69-1.38-.65-.55-.98-1.29-.98-2.23,0-1.18.42-2.02,1.25-2.51.83-.49,1.76-.73,2.78-.73,1.47,0,2.79.28,3.97.83,1.18.55,2.15,1.33,2.9,2.35.75,1.02,1.25,2.24,1.5,3.67h3.97v-10.82h-4.64v1.77c-.98-.69-2.17-1.21-3.58-1.56-1.41-.35-2.66-.52-3.76-.52-2,0-3.72.29-5.17.86s-2.64,1.33-3.58,2.29c-.94.96-1.63,2.02-2.08,3.18s-.67,2.33-.67,3.51c0,1.63.33,3,.98,4.12.65,1.12,1.52,2.06,2.6,2.81,1.08.75,2.26,1.4,3.54,1.92,1.28.53,2.56,1.04,3.82,1.53,1.55.57,2.84,1.08,3.88,1.53,1.04.45,1.83.92,2.38,1.41.55.49.83,1.12.83,1.89,0,.69-.21,1.27-.64,1.74-.43.47-.96.8-1.59,1.01-.63.21-1.29.31-1.99.31-1.71,0-3.26-.29-4.65-.89s-2.51-1.4-3.36-2.41-1.34-2.14-1.47-3.36h-3.97l.25,10.51h4.64l-.12-1.83c.94.69,2.24,1.26,3.91,1.71s3.38.67,5.13.67c1.92,0,3.72-.35,5.41-1.04,1.69-.69,3.07-1.73,4.12-3.12,1.06-1.38,1.59-3.14,1.59-5.26,0-1.91-.47-3.53-1.41-4.86Z"/>
      </g>
      <g>
        <g>
          <path class="cls-2" d="M263.05,1.81c28.53-4.58,58.44-.46,84.48,12.13,18.83,9.04,35.65,22.26,48.82,38.48,13.88,16.98,23.73,37.24,28.51,58.65,5.73,25.91,4.23,53.44-4.65,78.47-7.61,21.67-20.63,41.4-37.49,57-14.5,13.44-31.81,23.85-50.53,30.24-20.96,7.25-43.61,9.21-65.57,6.38,5.86-6.57,11.04-13.78,17.68-19.62,9.34-8.26,20.33-14.36,31.42-19.92,10.81-5.56,22.94-8.08,35.03-8.7,6.03-.59,12.4-.2,18-2.9,3.49-1.64,5.59-5.21,6.41-8.85,1.64-7.24.66-14.73-.2-22.01,2.44-2.48,5.75-4.27,7.47-7.36-.38-3.49-2.65-6.54-3.5-9.97,2.86-1.63,6.03-2.99,8.26-5.5,1.58-1.62-.27-3.61-1.04-5.14-2.34-3.61-2.94-8.02-2.53-12.23,5.05-1.76,10.34-3.55,14.37-7.24,2.06-1.84,3.23-4.79,2.3-7.49-1.44-4.39-4.78-7.77-7.72-11.21-6.36-7.05-13.21-14.32-15.85-23.69-5.46-22.77-13.81-45.18-27.3-64.47-10.84-15.55-25.37-28.82-42.75-36.66-9.76-4.43-20.29-7.17-30.98-8.01-4.2-.45-8.41-.18-12.62-.38Z"/>
          <path class="cls-2" d="M259.97,25.25c.72-4.74,4.73-7.93,8.46-10.45,2,4.07,2.91,8.72,1.97,13.2-.64,2.7-2.31,4.97-4.12,7.01-.85-4.82-.7-9.75-.12-14.59-2.15,4.51-2.08,9.58-1.89,14.46-2.56-2.5-4.9-5.85-4.31-9.62Z"/>
          <path class="cls-2" d="M263.88,56.1c2.14-6.64,8.45-10.64,14.35-13.64,2.17,6.2,3.12,13.14.89,19.46-1.31,4.16-4.21,7.63-7.63,10.26.02-7.38.18-14.95,2.78-21.95-4.51,6.16-5.2,14.09-5.68,21.47-3.67-4.2-6.5-9.98-4.71-15.61Z"/>
          <path class="cls-2" d="M301.02,57.76c1.1-6.85,7.7-11.17,14.26-11.65,0,4.04-.46,8.62-3.62,11.52-2.63,2.35-6.44,2.22-9.66,1.43,3.87-1.99,7.53-4.6,10.04-8.21-3.43,2.67-7.07,5.1-11.03,6.91Z"/>
          <path class="cls-2" d="M207.75,59.54c-.74-4.6,1.87-8.81,4.41-12.41,3.26,3.17,5.97,7.21,6.42,11.84.35,2.72-.48,5.39-1.51,7.88-2.22-4.33-4.16-8.87-4.95-13.7-.7,4.95,1.25,9.71,3.12,14.19-3.41-1.4-6.82-3.93-7.48-7.79Z"/>
          <path class="cls-2" d="M170.73,66.03c3.07,1.75,5.86,4.28,7.14,7.65.89,2.16.62,4.56.43,6.83-2.56-2.92-4.79-6.13-6.46-9.65.56,3.93,2.84,7.24,5.13,10.36-2.78-.52-5.8-1.65-7.13-4.37-1.74-3.49-.36-7.41.89-10.82Z"/>
          <path class="cls-2" d="M275.04,97.06c4.11.15,8.7,1.61,10.77,5.47,2.45,4.56,1.29,9.97-.16,14.66-4.53-2.24-8.9-5.43-11.03-10.17-1.37-2.71-1.34-5.81-1.2-8.76,3.83,3.76,7.66,7.68,10.05,12.54-.92-5.48-4.78-9.81-8.43-13.75Z"/>
          <path class="cls-2" d="M304.69,116.56c1.17-2.55,2.98-4.74,4.96-6.7,2.62,3.7,5.26,8.1,4.29,12.83-.8,3.69-4.13,6.01-7.4,7.41,1.97-4.48,3.75-9.23,3.17-14.22-.81,4.81-2.75,9.31-4.9,13.64-2.1-3.98-2.14-8.95-.12-12.96Z"/>
          <path class="cls-2" d="M170.05,134.66c-.92-4.67,1.76-9,4.32-12.66,2.8,2.8,5.24,6.14,6.16,10.06.62,3.07.35,6.38-1.07,9.2-.1,0-.32-.02-.43-.02-2.18-4.07-3.7-8.45-4.83-12.91-.44,4.89,1.44,9.53,3.24,13.95-3.29-1.46-6.69-3.84-7.39-7.61Z"/>
          <path class="cls-2" d="M235.18,144.32c1.1-6.88,7.77-11.25,14.38-11.63-.27,4.05-.55,8.73-3.87,11.6-2.56,2.27-6.19,2-9.33,1.48,3.63-2.41,7.49-4.73,9.91-8.48-3.42,2.75-7.1,5.18-11.1,7.02Z"/>
          <path class="cls-2" d="M325.63,137.09c2.9-.46,6.24-.79,8.7,1.18,3.51,2.67,3.91,7.47,4.07,11.53-4.21-.53-8.57-2.11-11.28-5.55-1.37-1.64-2.02-3.71-2.53-5.73,3.78,1.76,7.24,4.1,10.57,6.6-2.39-3.52-6.05-5.76-9.53-8.02Z"/>
          <path class="cls-2" d="M310.63,147.45c3.71-.77,8.05-1.1,11.17,1.47,4.12,3.3,4.82,9.01,4.99,13.93-.54-.25-1.62-.75-2.16-1,.1.34.31,1.03.41,1.37-4.29-.92-8.62-2.57-11.67-5.85-2.2-2.24-3.47-5.22-4.01-8.29,4.81,2.45,9.46,5.25,13.56,8.78-2.99-4.61-7.61-7.73-12.29-10.42Z"/>
        </g>
        <g>
          <path class="cls-3" d="M244.43,17.27c.48,4.89,2.47,9.48,4.87,13.71.96-2.57,1.85-5.31,1.4-8.09-.54-4.51-3.23-8.37-6.33-11.53-2.8,3.69-5.45,8.3-4.31,13.11.92,3.54,4.16,5.69,7.3,7.13-1.78-4.55-3.99-9.32-2.93-14.33Z"/>
          <path class="cls-3" d="M290.06,43.45c3.08-.37,6.52-1.3,8.15-4.21,2.02-3.53.93-7.72.02-11.4-5.83,2.25-10.56,8.16-9.48,14.66,2.97-2.95,5.88-6.07,7.73-9.87-.71,4.29-3.68,7.64-6.42,10.81Z"/>
          <path class="cls-3" d="M246.33,38.79c-2.4,5.63-4.39,12.27-1.85,18.2,2.15,4.86,7.5,7.17,12.48,7.84-4.15-5.39-8.41-11.39-8.73-18.44,2.08,6.56,6.62,11.96,10.97,17.15.63-3.74.77-7.71-.62-11.31-2.15-5.87-6.98-10.32-12.26-13.44Z"/>
          <path class="cls-3" d="M224.14,70.77c-2.06,5.75.67,11.94,4.63,16.16.26-7.33,1.15-15.05,5.34-21.3-2.22,7.07-2.57,14.54-2.59,21.9,2.96-2.41,5.63-5.31,7.11-8.88,2.8-6.67,2.06-14.29-.35-20.96-5.76,2.88-11.82,6.75-14.15,13.08Z"/>
          <path class="cls-3" d="M335.51,70.24c-2.8.43-5.62,1.1-8.04,2.63-3.33,1.91-5.49,5.36-6.23,9.09,4.01-1.97,7.89-4.27,11.17-7.34-2.36,3.96-6.32,6.42-10.14,8.77,3.15.43,6.81.84,9.39-1.45,3.36-2.85,3.75-7.6,3.84-11.7Z"/>
          <path class="cls-3" d="M192.98,88.52c-3.88-1.03-8.55-1.11-11.68,1.78-3.93,3.53-4.46,9.23-4.51,14.19,4.15-.62,8.37-1.85,11.68-4.54,3.13-2.37,5.03-6.01,5.75-9.82-4.84,2.39-9.48,5.23-13.58,8.76,2.99-4.61,7.59-7.81,12.35-10.37Z"/>
          <path class="cls-3" d="M337.06,105.9c-2.78,1.71-5.36,3.9-6.98,6.78-1.76,2.93-1.92,6.49-1.31,9.78,2.88-3.43,5.43-7.14,7.24-11.26-.6,4.51-3.05,8.43-5.72,12.01,3.4-.61,7.05-2.23,8.32-5.71,1.28-3.88.02-8-1.54-11.6Z"/>
          <path class="cls-3" d="M294.43,119.41c-2.73,3.61-5.28,8.02-4.38,12.73.73,3.71,4.08,6.11,7.38,7.46-1.99-4.51-3.67-9.34-3.22-14.35.91,4.85,2.77,9.44,5.01,13.81,1.29-2.7,2.06-5.76,1.44-8.74-.65-4.27-3.32-7.87-6.23-10.91Z"/>
          <path class="cls-3" d="M268.68,127.6c-2.09,2.44-2.8,5.7-2.7,8.85,3.48-2.82,6.72-5.98,9.19-9.74-1.43,4.38-4.64,7.77-7.91,10.87,3.13-.06,6.66-.65,8.68-3.31,2.73-3.55,2.1-8.38,1.18-12.46-3.2,1.26-6.3,3.05-8.44,5.79Z"/>
          <path class="cls-3" d="M180.58,146.09c-2.49-.18-5.1-.23-7.43.81-3.85,1.63-6.59,5.04-8.52,8.64,3.87,1.29,8.32,2.4,12.18.49,3.08-1.62,4.28-5.21,4.65-8.46-3.37,2.8-6.99,5.65-11.41,6.48,3.9-2.09,7.38-4.87,10.55-7.95Z"/>
          <path class="cls-3" d="M214.89,153.97c-2.82-.34-6.11-.79-8.44,1.25-3.05,2.57-3.4,6.85-3.63,10.56,5.96-.32,12.05-4.25,12.99-10.5-3.58,1.66-6.86,3.87-9.99,6.27,2.3-3.31,5.7-5.52,9.07-7.58Z"/>
        </g>
        <g>
          <path class="cls-1" d="M282.6,60.91c2.97-3.55,7.87-4.46,12.25-4.84-.37,4.48-1.48,9.17-4.62,12.54-1.85,2.11-4.46,3.3-7.06,4.2,1.83-4.59,3.99-9.1,7.11-12.97-4.12,2.91-6.45,7.47-8.71,11.82-1.05-3.49-1.5-7.76,1.03-10.74Z"/>
          <path class="cls-1" d="M195.99,67.03c6.55.79,13.2,3.11,17.91,7.9,3.07,3.07,4.96,7.16,5.72,11.41-6.63-3.21-13.1-6.97-18.43-12.11,3.78,6.53,10.25,10.8,16.7,14.39-5.5,1.72-12.26,1.33-16.44-3.05-4.66-4.9-5.36-12.1-5.46-18.53Z"/>
          <path class="cls-1" d="M273.69,81.93c2.03-2.39,4.4-4.46,6.94-6.3-5.84,8.94-9.53,19.09-12.07,29.43-3.46,13.9-5.13,28.18-6.07,42.46-.62,9.15-.84,18.33-.58,27.49,1.82-8.48,5.24-16.94,11.61-23.02,9.14-8.96,23.12-11.43,35.33-8.84-6.86,2.16-14.26,3.3-20.32,7.43-6.01,4.31-8.91,11.41-11.76,17.95,13.71-1.28,27.2,4.33,38,12.44-10.56-2.45-21.95-4.35-32.47-.71-6.19,2.02-11.22,7.23-12.71,13.6-1.45,6.41-1.03,13.04-1.08,19.57.18,3.75-.58,7.84,1.48,11.23,2.67,4.66,7.44,7.59,12.19,9.79,3.92,1.87,8.1,3.1,12.29,4.22-3.64,2.08-7.97,2.8-12.08,2.02-6.27-1.03-12.04-3.94-17.29-7.42,1.84,10.55,8.41,19.41,14.97,27.55-7.33-1.67-13.17-6.89-17.86-12.52-2.29-2.71-4.35-5.61-6.21-8.63-4.92,6.27-10.99,11.83-18.26,15.22-3.31,1.59-7,2.12-10.65,2.08,2.19-1.17,4.21-2.64,5.82-4.54,4.52-5.2,8.08-11.15,11.56-17.08-5.98,3.65-13.06,5.21-20.02,4.68-5.43-.26-10.67-1.88-15.72-3.8,4.38.53,8.79,1.26,13.2.6,10.48-1.44,19.63-8.1,25.9-16.4,1.37-1.39.82-3.44.88-5.18-.49-14.01-1.14-28.02-1.73-42.02-10.37-15.37-26.87-27.27-45.49-29.91-5.34-.89-10.78-.67-16.15-.16,5.37-3.55,11.96-4.54,18.29-4.42,5.35.15,10.67.92,15.85,2.31-2.88-10.08-2.67-20.8-1.22-31.1.53,2.31.82,4.67,1.27,7,3.59,17.98,14.5,34.32,29.57,44.73.9-12.34,2.63-24.62,4.63-36.82.32-4.28-.85-8.54-2.21-12.55-4.41-12.12-15.96-20.52-28.28-23.31,7.94-.46,16.16,1.7,22.52,6.56,6.08,4.59,10.28,11.38,12.38,18.66,2.77-11.69,7.59-23.16,15.55-32.28Z"/>
          <path class="cls-1" d="M342.82,89.46c2.72-2.2,6.16-3.22,9.57-3.75-.02,4.04-.44,8.61-3.58,11.53-2.55,2.37-6.31,2.37-9.5,1.61,3.63-2.36,7.52-4.67,9.83-8.48-3.3,2.88-7.05,5.19-10.99,7.09.68-3.07,2.1-6.07,4.67-7.99Z"/>
          <path class="cls-1" d="M226.99,119.35c-.3-6.59,2.51-12.91,6.33-18.14,4.74,4.53,9.65,10.01,9.9,16.92.23,5.98-4.14,10.88-8.93,13.84,1.72-7.2,3.06-14.85.83-22.11.01,7.43-1.49,14.77-3.71,21.83-2.55-3.62-4.49-7.85-4.42-12.35Z"/>
          <path class="cls-1" d="M201.98,120.2c4.35-1.81,9.5,2.49,8.6,7.09-.43,4.83-6.88,7.33-10.52,4.16-3.96-2.88-2.81-9.85,1.91-11.25Z"/>
          <path class="cls-1" d="M336.42,132.28c1.34-3.46,3.81-6.98,7.7-7.68,4.6-.82,8.82,1.7,12.49,4.16-3.03,3.21-6.85,5.98-11.32,6.59-2.82.52-5.65-.26-8.27-1.25,4.2-2.43,8.73-4.39,13.53-5.21-4.97-.62-9.71,1.36-14.12,3.4Z"/>
          <path class="cls-1" d="M296.67,152.71c3.86-1.4,8.34,1.68,8.56,5.74.38,4-3.58,7.66-7.54,6.92-3.64-.49-6.28-4.4-5.32-7.96.45-2.2,2.18-4.04,4.31-4.7Z"/>
          <path class="cls-1" d="M324.63,161.85c.54.25,1.62.75,2.16,1,6.89,3.21,9.54,11.38,9.17,18.51-4.57-.8-9.54-2.07-12.63-5.81-2.7-3.22-2.51-7.89-1.01-11.6.12-1.53,1,.06,1.11.53,1.73,4.56,4.01,9.12,7.89,12.23-2.9-4.07-4.78-8.76-6.27-13.5-.1-.34-.31-1.03-.41-1.37Z"/>
        </g>
        <g>
          <path class="cls-3" d="M224.87,36.16c-1.33,1.61-.96,3.8-.84,5.72,1.48-2.31,3.14-4.53,5.37-6.16-1.68,2.21-3.29,4.48-4.53,6.97,1.67-.56,3.49-1.06,4.72-2.41,1.83-1.78,2.52-4.32,3.08-6.72-2.73.15-5.98.23-7.8,2.6Z"/>
          <path class="cls-3" d="M307.38,76.09c3.1.48,6.66.83,9.26-1.33,3.49-2.83,3.87-7.69,3.99-11.85-2.89.49-5.81,1.19-8.28,2.82-3.26,1.89-5.26,5.32-6.03,8.94,4-1.9,7.76-4.29,11.13-7.14-2.46,3.78-6.28,6.28-10.07,8.57Z"/>
          <path class="cls-3" d="M279,89.32c4.05-1.91,7.9-4.27,11.21-7.32-2.36,3.9-6.25,6.36-10.03,8.69,3.12.58,6.78.85,9.32-1.42,3.32-2.87,3.77-7.58,3.79-11.69-2.77.46-5.57,1.12-7.97,2.64-3.38,1.9-5.49,5.39-6.33,9.1Z"/>
          <path class="cls-3" d="M313.93,102.45c3.13.67,6.83.89,9.4-1.37,3.35-2.86,3.81-7.6,3.92-11.71-3.11.49-6.27,1.26-8.85,3.13-2.97,1.92-4.74,5.17-5.48,8.57,4.04-1.87,7.82-4.29,11.17-7.22-2.47,3.81-6.27,6.42-10.16,8.61Z"/>
          <path class="cls-3" d="M197.5,94.05c-1.37,3.42-2.65,7.5-.88,11.02,1.34,2.67,4.37,3.65,7.07,4.31-2.2-3.08-4.38-6.3-5.15-10.08,1.94,3.27,3.94,6.52,6.53,9.31.16-2.39.46-4.93-.6-7.16-1.34-3.24-4.1-5.56-6.97-7.39Z"/>
          <path class="cls-3" d="M310.33,137.58c4.53-1.96,8.67-4.72,12.46-7.87-2.7,4.22-6.95,7.07-11.26,9.43,3.63.95,8,1.01,10.89-1.73,3.54-3.29,3.91-8.46,4.13-12.98-3.51.45-7,1.48-9.94,3.5-3.35,2.17-5.42,5.81-6.27,9.65Z"/>
          <path class="cls-3" d="M278.34,139.56c-.16,1.94.59,3.79,1.33,5.54,1.4-2.78,2-5.86,2.89-8.82.29,3.12-.64,6.13-1.56,9.07,1.97-1.22,4.12-2.75,4.54-5.2.56-3.32-1.64-6.2-3.64-8.6-1.75,2.36-3.52,4.96-3.56,8.01Z"/>
          <path class="cls-3" d="M188.4,150.35c2.5,3.49,5.11,7.17,5.61,11.56-1.89-3.87-4.23-7.53-7.18-10.68-.29,2.58-.52,5.31.53,7.77,1.42,3.79,4.56,6.58,7.91,8.68,1.56-3.82,3.13-8.36,1.15-12.32-1.48-3.07-4.89-4.38-8.03-5Z"/>
        </g>
        <g>
          <path class="cls-1" d="M300.44,93.39c-1.53,1.63-1.26,4.02-1.06,6.06,1.42-2.22,2.95-4.43,5.04-6.09-1.41,2.28-3.02,4.45-4.19,6.87,4.46-.81,7.34-4.92,7.78-9.25-2.63.15-5.69.27-7.57,2.41Z"/>
          <path class="cls-1" d="M210.88,104.82c2.34.23,5.07.56,6.99-1.15,2.5-2.09,2.64-5.62,2.87-8.62-4.92.32-9.68,3.57-10.68,8.6,3-1.25,5.67-3.11,8.19-5.14-1.84,2.75-4.64,4.56-7.37,6.31Z"/>
          <path class="cls-1" d="M184.4,109.7c-1.42,3.39-2.66,7.42-.97,10.94,1.31,2.68,4.32,3.83,7.09,4.29-2.19-3.08-4.59-6.28-5.03-10.15,1.65,3.46,3.86,6.62,6.41,9.47.38-2.39.44-4.92-.6-7.16-1.29-3.24-4.08-5.51-6.9-7.39Z"/>
          <path class="cls-1" d="M228.83,164.43c-3.93-1.07-8.6-.98-11.75,1.94-3.8,3.57-4.26,9.13-4.46,14.03,4.15-.46,8.29-1.78,11.61-4.36,3.17-2.36,5.2-6.01,5.79-9.89-4.8,2.45-9.59,5.11-13.45,8.93,2.71-4.88,7.58-7.88,12.24-10.65Z"/>
        </g>
      </g>
    </g>
  </g>
</svg>